<svg xmlns="http://www.w3.org/2000/svg" version="1.1" xmlns:xlink="http://www.w3.org/1999/xlink" xmlns:svgjs="http://svgjs.dev/svgjs" width="1000" height="1000" viewBox="0 0 1000 1000"><rect width="1000" height="1000" fill="#000000"></rect><g transform="matrix(0.7,0,0,0.7,149.57575757575756,309.3104809357552)"><svg viewBox="0 0 396 212" data-background-color="#ffffff" preserveAspectRatio="xMidYMid meet" height="535" width="1000" xmlns="http://www.w3.org/2000/svg" xmlns:xlink="http://www.w3.org/1999/xlink"><g id="tight-bounds" transform="matrix(1,0,0,1,0.2400000000000091,1.9470708721492826)"><svg viewBox="0 0 395.52 209.85811435193745" height="209.85811435193745" width="395.52"><g><svg viewBox="0 0 395.52 209.85811435193745" height="209.85811435193745" width="395.52"><g transform="matrix(1,0,0,1,0,126.95859836673144)"><svg viewBox="0 0 395.52 82.89951598520602" height="82.89951598520602" width="395.52"><g id="textblocktransform"><svg viewBox="0 0 395.52 82.89951598520602" height="82.89951598520602" width="395.52" id="textblock"><g><svg viewBox="0 0 395.52 52.48931392931392" height="52.48931392931392" width="395.52"><g transform="matrix(1,0,0,1,0,0)"><svg width="395.52" viewBox="1.95 -36.65 288.58 38.3" height="52.48931392931392" data-palette-color="#6f605b"><path d="M29.05-7.55L31.35-2.6Q30.75-2.15 29.68-1.63 28.6-1.1 27.15-0.65 25.7-0.2 23.93 0.1 22.15 0.4 20.15 0.4L20.15 0.4Q15.9 0.4 12.53-1.07 9.15-2.55 6.8-5.05 4.45-7.55 3.2-10.85 1.95-14.15 1.95-17.85L1.95-17.85Q1.95-21.95 3.43-25.4 4.9-28.85 7.45-31.35 10-33.85 13.43-35.25 16.85-36.65 20.7-36.65L20.7-36.65Q22.15-36.65 23.65-36.45 25.15-36.25 26.48-35.9 27.8-35.55 28.83-35.08 29.85-34.6 30.4-34.1L30.4-34.1Q30-33.5 29.78-33.1 29.55-32.7 29.3-32.27 29.05-31.85 28.75-31.3 28.45-30.75 27.95-29.85L27.95-29.85Q27.3-30.3 26.43-30.6 25.55-30.9 24.6-31.1 23.65-31.3 22.68-31.4 21.7-31.5 20.9-31.5L20.9-31.5Q18-31.5 15.53-30.43 13.05-29.35 11.25-27.53 9.45-25.7 8.43-23.3 7.4-20.9 7.4-18.3L7.4-18.3Q7.4-15.75 8.38-13.4 9.35-11.05 11.08-9.2 12.8-7.35 15.23-6.25 17.65-5.15 20.55-5.15L20.55-5.15Q22.1-5.15 23.55-5.45 25-5.75 26.18-6.15 27.35-6.55 28.13-6.95 28.9-7.35 29.05-7.55L29.05-7.55ZM41.85 0L36.35 0 36.35-36.25 46.25-36.25Q49.1-36.25 51.47-35.5 53.85-34.75 55.57-33.27 57.3-31.8 58.25-29.68 59.2-27.55 59.2-24.8L59.2-24.8Q59.2-23.3 58.9-21.83 58.6-20.35 57.92-18.98 57.25-17.6 56.2-16.43 55.15-15.25 53.65-14.45L53.65-14.45Q55.65-11.3 58-7.48 60.35-3.65 62.75 0L62.75 0 56.2 0Q55.2-1.55 54.12-3.25 53.05-4.95 51.97-6.63 50.9-8.3 49.87-9.93 48.85-11.55 47.95-12.95L47.95-12.95 46.95-12.95 41.85-12.95 41.85 0ZM41.85-31.15L41.85-18.1 46.8-18.1Q48.8-18.1 50.15-18.78 51.5-19.45 52.27-20.45 53.05-21.45 53.37-22.6 53.7-23.75 53.7-24.7L53.7-24.7Q53.7-25.65 53.37-26.78 53.05-27.9 52.25-28.88 51.45-29.85 50.12-30.5 48.8-31.15 46.85-31.15L46.85-31.15 41.85-31.15ZM92.25 0L67.75 0 67.75-36.25 91.55-36.25 91.55-31.3 73.25-31.3 73.25-20.7 89.55-20.7 89.55-15.65 73.25-15.65 73.25-5.05 92.25-5.05 92.25 0ZM98.59 0L98.59-36.25 107.69-36.25Q113.19-36.25 116.99-34.6 120.79-32.95 123.17-30.28 125.54-27.6 126.62-24.28 127.69-20.95 127.69-17.65L127.69-17.65Q127.69-13.6 126.24-10.33 124.79-7.05 122.29-4.75 119.79-2.45 116.49-1.23 113.19 0 109.49 0L109.49 0 98.59 0ZM104.04-5.2L108.69-5.2Q111.59-5.2 114.07-6.05 116.54-6.9 118.37-8.53 120.19-10.15 121.22-12.53 122.24-14.9 122.24-18L122.24-18Q122.24-21.3 121.09-23.75 119.94-26.2 118.09-27.83 116.24-29.45 113.92-30.23 111.59-31 109.19-31L109.19-31 104.04-31 104.04-5.2ZM134.14 0L134.14-36.25 139.59-36.25 139.59 0 134.14 0ZM146.04-36.25L169.59-36.25 169.59-31.05 160.44-31.05 160.44 0 154.99 0 154.99-31.05 146.04-31.05 146.04-36.25ZM212.89-36.1L218.59-36.1Q216.79-31.35 214.76-26.13 212.74-20.9 210.76-15.85 208.79-10.8 207.04-6.25 205.29-1.7 204.09 1.6L204.09 1.6 195.99-18.65Q195.84-19.05 195.74-19.25 195.64-19.45 195.54-19.85L195.54-19.85Q195.54-19.65 195.49-19.48 195.44-19.3 195.39-19.1L195.39-19.1Q195.34-18.9 195.29-18.7L195.29-18.7Q193.59-14.8 191.94-11.05L191.94-11.05Q191.24-9.45 190.49-7.75 189.74-6.05 189.04-4.38 188.34-2.7 187.66-1.15 186.99 0.4 186.44 1.65L186.44 1.65Q182.84-7.8 179.19-17.2 175.54-26.6 171.94-36.1L171.94-36.1 178.09-36.1Q179.29-32.8 180.56-29.45 181.84-26.1 182.96-23 184.09-19.9 184.99-17.25 185.89-14.6 186.39-12.75L186.39-12.75 186.79-11Q186.84-11.25 187.04-11.83 187.24-12.4 187.34-12.65L187.34-12.65Q187.39-12.85 187.69-13.55 187.99-14.25 188.39-15.23 188.79-16.2 189.29-17.35 189.79-18.5 190.29-19.7L190.29-19.7Q191.49-22.45 192.94-25.8L192.94-25.8Q192.09-28.15 191.44-30.2L191.44-30.2Q190.84-31.95 190.31-33.65 189.79-35.35 189.54-36.1L189.54-36.1 194.79-36.1Q196.94-30.45 198.79-25.65L198.79-25.65Q199.54-23.6 200.31-21.55 201.09-19.5 201.76-17.75 202.44-16 202.94-14.68 203.44-13.35 203.64-12.75L203.64-12.75Q203.79-12.3 203.86-11.88 203.94-11.45 204.04-11L204.04-11Q204.14-11.45 204.21-11.9 204.29-12.35 204.39-12.75L204.39-12.75Q204.84-14.7 205.79-17.4 206.74-20.1 207.91-23.2 209.09-26.3 210.39-29.63 211.69-32.95 212.89-36.1L212.89-36.1ZM223.43 0L223.43-36.25 228.88-36.25 228.88 0 223.43 0ZM258.53-34.25L258.53-34.25 256.58-29.8Q254.53-30.55 252.51-31 250.48-31.45 248.63-31.45L248.63-31.45Q245.48-31.45 243.61-30.15 241.73-28.85 241.73-26.85L241.73-26.85Q241.73-25.15 243.08-24.13 244.43-23.1 246.43-22.28 248.43-21.45 250.78-20.63 253.13-19.8 255.13-18.5 257.13-17.2 258.48-15.23 259.83-13.25 259.83-10.15L259.83-10.15Q259.83-7.75 258.96-5.83 258.08-3.9 256.36-2.5 254.63-1.1 252.06-0.35 249.48 0.4 246.03 0.4L246.03 0.4Q243.83 0.4 242.06 0.1 240.28-0.2 238.86-0.68 237.43-1.15 236.36-1.7 235.28-2.25 234.53-2.7L234.53-2.7 236.93-7.45Q238.93-6.3 241.38-5.6 243.83-4.9 245.83-4.9L245.83-4.9Q246.83-4.9 248.31-5.15 249.78-5.4 251.13-6.03 252.48-6.65 253.46-7.7 254.43-8.75 254.43-10.35L254.43-10.35Q254.43-11.8 253.66-12.83 252.88-13.85 251.61-14.63 250.33-15.4 248.71-16.03 247.08-16.65 245.38-17.32 243.68-18 242.06-18.75 240.43-19.5 239.16-20.58 237.88-21.65 237.11-23.08 236.33-24.5 236.33-26.5L236.33-26.5Q236.33-28.35 237.08-30.15 237.83-31.95 239.33-33.35 240.83-34.75 243.06-35.6 245.28-36.45 248.23-36.45L248.23-36.45Q250.03-36.45 251.76-36.15 253.48-35.85 254.88-35.48 256.28-35.1 257.26-34.75 258.23-34.4 258.53-34.25ZM290.53 0L266.03 0 266.03-36.25 289.83-36.25 289.83-31.3 271.53-31.3 271.53-20.7 287.83-20.7 287.83-15.65 271.53-15.65 271.53-5.05 290.53-5.05 290.53 0Z" opacity="1" transform="matrix(1,0,0,1,0,0)" fill="#ffffff" class="undefined-text-0" data-fill-palette-color="primary" id="text-0"></path></svg></g></svg></g><g transform="matrix(1,0,0,1,75.54432,64.88078120449063)"><svg viewBox="0 0 244.43135999999998 18.018734780715395" height="18.018734780715395" width="244.43135999999998"><g transform="matrix(1,0,0,1,0,0)"><svg width="244.43135999999998" viewBox="4.55 -35.5 642.9300000000001 47.400000000000006" height="18.018734780715395" data-palette-color="#0074d9"><path d="M23.3-3.25L23.3 0 4.55 0 4.55-35 8.3-35 8.3-3.25 23.3-3.25ZM43.65-12.33Q43.65-17.15 41.75-19.7 39.85-22.25 36.2-22.25 32.55-22.25 31.02-19.83 29.5-17.4 29.5-12.4L29.5-12.4Q29.5-2.95 36.45-2.95L36.45-2.95Q40.1-2.95 41.87-5.23 43.65-7.5 43.65-12.33ZM44.55-3.1Q41.7 0.3 36.5 0.3 31.3 0.3 28.52-3.08 25.75-6.45 25.75-12.53 25.75-18.6 28.42-22.05 31.1-25.5 36.27-25.5 41.45-25.5 44.42-22 47.4-18.5 47.4-12.5 47.4-6.5 44.55-3.1ZM64.9-14.95L64.9-14.95 66.95-14.95Q66.95-19.5 65.8-20.88 64.65-22.25 60.7-22.25 56.75-22.25 54-21.2L54-21.2 53.3-24.1Q57.5-25.5 62-25.5L62-25.5Q70.8-25.5 70.8-16.7L70.8-16.7 70.8 0 68.59 0 67.3-2.95Q65-1.05 63.32-0.38 61.65 0.3 59.45 0.3L59.45 0.3Q55.95 0.3 54-1.78 52.05-3.85 52.05-7.25L52.05-7.25Q52.05-14.95 64.9-14.95ZM67-6.55L67-11.8 64.75-11.8Q59.65-11.8 57.72-10.8 55.8-9.8 55.8-7.68 55.8-5.55 56.9-4.2 58-2.85 59.77-2.85 61.55-2.85 63.17-3.68 64.8-4.5 67-6.55L67-6.55ZM83.64-19.85L83.64-19.85 83.64 0 79.89 0 79.89-25 82.29-25 82.89-22.55Q84.04-23.45 84.77-23.95 85.49-24.45 87.09-24.98 88.69-25.5 90.49-25.5L90.49-25.5Q93.94-25.5 96.22-23.38 98.49-21.25 98.49-17.35L98.49-17.35 98.49 0 94.74 0 94.74-16.25Q94.74-22.3 89.69-22.3L89.69-22.3Q86.09-22.3 83.64-19.85ZM132.24-35L143.84 0 139.64 0 136.14-11.05 123.59-11.05 120.14 0 116.19 0 127.69-35 132.24-35ZM124.54-14.3L135.29-14.3 129.94-31.2 124.54-14.3ZM152.79-2.05L152.79 11.9 149.04 11.9 149.04-24.95 151.24-24.95 152.54-22.15Q154.64-23.75 156.46-24.63 158.29-25.5 160.49-25.5L160.49-25.5Q169.49-25.5 169.49-12.55L169.49-12.55Q169.49-5.2 166.29-2.3L166.29-2.3Q163.44 0.35 159.81 0.35 156.19 0.35 152.79-2.05L152.79-2.05ZM152.79-18.8L152.79-18.8 152.79-5.45Q153.79-4.25 155.49-3.55 157.19-2.85 158.74-2.85L158.74-2.85Q162.64-2.85 164.19-5.15 165.74-7.45 165.74-12.35 165.74-17.25 164.19-19.75 162.64-22.25 160.24-22.25L160.24-22.25Q158.64-22.25 157.06-21.6 155.49-20.95 154.71-20.38 153.94-19.8 152.79-18.8ZM180.08-2.05L180.08 11.9 176.33 11.9 176.33-24.95 178.53-24.95 179.83-22.15Q181.93-23.75 183.76-24.63 185.58-25.5 187.78-25.5L187.78-25.5Q196.78-25.5 196.78-12.55L196.78-12.55Q196.78-5.2 193.58-2.3L193.58-2.3Q190.73 0.35 187.11 0.35 183.48 0.35 180.08-2.05L180.08-2.05ZM180.08-18.8L180.08-18.8 180.08-5.45Q181.08-4.25 182.78-3.55 184.48-2.85 186.03-2.85L186.03-2.85Q189.93-2.85 191.48-5.15 193.03-7.45 193.03-12.35 193.03-17.25 191.48-19.75 189.93-22.25 187.53-22.25L187.53-22.25Q185.93-22.25 184.36-21.6 182.78-20.95 182.01-20.38 181.23-19.8 180.08-18.8ZM207.38-19.1L207.38-19.1 207.38 0 203.63 0 203.63-25 206.03-25 206.63-22.05Q209.03-23.95 210.63-24.73 212.23-25.5 214.28-25.5L214.28-25.5Q215.28-25.5 215.78-25.4L215.78-25.4 216.48-25.2 215.88-21.75Q214.98-22.05 213.43-22.05L213.43-22.05Q210.43-22.05 207.38-19.1ZM237.63-12.33Q237.63-17.15 235.73-19.7 233.83-22.25 230.18-22.25 226.53-22.25 225-19.83 223.48-17.4 223.48-12.4L223.48-12.4Q223.48-2.95 230.43-2.95L230.43-2.95Q234.08-2.95 235.85-5.23 237.63-7.5 237.63-12.33ZM238.53-3.1Q235.68 0.3 230.48 0.3 225.28 0.3 222.5-3.08 219.73-6.45 219.73-12.53 219.73-18.6 222.4-22.05 225.08-25.5 230.25-25.5 235.43-25.5 238.4-22 241.38-18.5 241.38-12.5 241.38-6.5 238.53-3.1ZM261.08-25.05L265.23-25.05 256.78 0 252.48 0 244.08-25.05 248.33-25.05 254.68-4 261.08-25.05ZM281.12-14.95L281.12-14.95 283.17-14.95Q283.17-19.5 282.02-20.88 280.87-22.25 276.92-22.25 272.97-22.25 270.22-21.2L270.22-21.2 269.52-24.1Q273.72-25.5 278.22-25.5L278.22-25.5Q287.02-25.5 287.02-16.7L287.02-16.7 287.02 0 284.82 0 283.52-2.95Q281.22-1.05 279.55-0.38 277.87 0.3 275.67 0.3L275.67 0.3Q272.17 0.3 270.22-1.78 268.27-3.85 268.27-7.25L268.27-7.25Q268.27-14.95 281.12-14.95ZM283.22-6.55L283.22-11.8 280.97-11.8Q275.87-11.8 273.95-10.8 272.02-9.8 272.02-7.68 272.02-5.55 273.12-4.2 274.22-2.85 276-2.85 277.77-2.85 279.4-3.68 281.02-4.5 283.22-6.55L283.22-6.55ZM299.87 0L296.12 0 296.12-35 299.87-35 299.87 0ZM310.02-5.55L313.77-4.35 308.12 8.6 305.67 7.8 310.02-5.55ZM330.86-25L334.76-25 334.76-29.8Q334.76-32.85 336.64-34.18 338.51-35.5 340.69-35.5 342.86-35.5 344.91-34.85L344.91-34.85 344.36-32.15Q342.71-32.45 341.91-32.45L341.91-32.45Q338.46-32.45 338.46-29.1L338.46-29.1 338.46-25 343.56-25 343.56-22 338.46-22 338.46 0 334.71 0 334.71-22 330.86-22 330.86-25ZM351.96-19.1L351.96-19.1 351.96 0 348.21 0 348.21-25 350.61-25 351.21-22.05Q353.61-23.95 355.21-24.73 356.81-25.5 358.86-25.5L358.86-25.5Q359.86-25.5 360.36-25.4L360.36-25.4 361.06-25.2 360.46-21.75Q359.56-22.05 358.01-22.05L358.01-22.05Q355.01-22.05 351.96-19.1ZM377.56-14.95L377.56-14.95 379.61-14.95Q379.61-19.5 378.46-20.88 377.31-22.25 373.36-22.25 369.41-22.25 366.66-21.2L366.66-21.2 365.96-24.1Q370.16-25.5 374.66-25.5L374.66-25.5Q383.46-25.5 383.46-16.7L383.46-16.7 383.46 0 381.26 0 379.96-2.95Q377.66-1.05 375.98-0.38 374.31 0.3 372.11 0.3L372.11 0.3Q368.61 0.3 366.66-1.78 364.71-3.85 364.71-7.25L364.71-7.25Q364.71-14.95 377.56-14.95ZM379.66-6.55L379.66-11.8 377.41-11.8Q372.31-11.8 370.38-10.8 368.46-9.8 368.46-7.68 368.46-5.55 369.56-4.2 370.66-2.85 372.43-2.85 374.21-2.85 375.83-3.68 377.46-4.5 379.66-6.55L379.66-6.55ZM406.86-6.35L406.86-6.35 406.86-25 410.66-25 410.66 0 408.46 0 407.21-2.95Q403.21 0.3 399.56 0.3 395.91 0.3 393.98-1.83 392.06-3.95 392.06-7.85L392.06-7.85 392.06-25 395.81-25 395.81-8.45Q395.81-5.5 396.68-4.2 397.56-2.9 399.58-2.9 401.61-2.9 403.71-4 405.81-5.1 406.86-6.35ZM434-23L434-35 437.75-35 437.75 0 435.55 0 434.3-2.85Q429.7 0.4 426.3 0.4L426.3 0.4Q417.3 0.4 417.3-12.55L417.3-12.55Q417.3-19.9 420.5-22.8L420.5-22.8Q423.35-25.45 426.95-25.45 430.55-25.45 434-23L434-23ZM434-6.2L434-6.2 434-19.2Q432.95-20.45 431.23-21.35 429.5-22.25 428.05-22.25L428.05-22.25Q424.15-22.25 422.6-19.95 421.05-17.65 421.05-12.75 421.05-7.85 422.6-5.35 424.15-2.85 426.55-2.85L426.55-2.85Q430.15-2.85 434-6.2ZM473.6-23L473.6-35 477.35-35 477.35 0 475.15 0 473.9-2.85Q469.3 0.4 465.9 0.4L465.9 0.4Q456.9 0.4 456.9-12.55L456.9-12.55Q456.9-19.9 460.1-22.8L460.1-22.8Q462.95-25.45 466.55-25.45 470.15-25.45 473.6-23L473.6-23ZM473.6-6.2L473.6-6.2 473.6-19.2Q472.55-20.45 470.82-21.35 469.1-22.25 467.65-22.25L467.65-22.25Q463.75-22.25 462.2-19.95 460.65-17.65 460.65-12.75 460.65-7.85 462.2-5.35 463.75-2.85 466.15-2.85L466.15-2.85Q469.75-2.85 473.6-6.2ZM503.8-11.7L503.8-11.7 487.85-11.7Q487.85-6.9 490.12-4.9 492.4-2.9 495.85-2.9L495.85-2.9Q497.6-2.9 498.3-3.08 499-3.25 499.62-3.43 500.25-3.6 500.5-3.7L500.5-3.7Q501.75-4.05 502.65-4.35L502.65-4.35 503.25-1.45Q498.25 0.3 495.45 0.3L495.45 0.3Q490.3 0.3 487.2-2.83 484.1-5.95 484.1-12.23 484.1-18.5 487.02-22 489.95-25.5 494.42-25.5 498.9-25.5 501.4-22.6 503.9-19.7 503.9-14.75L503.9-14.75Q503.9-13.4 503.8-11.7ZM488.1-14.55L488.1-14.55 500.3-14.55Q500.3-18.25 499-20.25 497.7-22.25 494.47-22.25 491.25-22.25 489.75-20.1 488.25-17.95 488.1-14.55ZM511.49-5.4L511.49-5.4 511.49-22 508.09-22 508.09-25 511.54-25 511.54-32.15 515.29-32.15 515.29-25 521.39-25 521.39-22 515.24-22 515.24-6.1Q515.24-2.75 518.64-2.75L518.64-2.75Q519.44-2.75 521.09-3.05L521.09-3.05 521.64-0.35Q519.59 0.3 517.42 0.3 515.24 0.3 513.37-1.03 511.49-2.35 511.49-5.4ZM545.54-11.7L545.54-11.7 529.59-11.7Q529.59-6.9 531.87-4.9 534.14-2.9 537.59-2.9L537.59-2.9Q539.34-2.9 540.04-3.08 540.74-3.25 541.37-3.43 541.99-3.6 542.24-3.7L542.24-3.7Q543.49-4.05 544.39-4.35L544.39-4.35 544.99-1.45Q539.99 0.3 537.19 0.3L537.19 0.3Q532.04 0.3 528.94-2.83 525.84-5.95 525.84-12.23 525.84-18.5 528.77-22 531.69-25.5 536.17-25.5 540.64-25.5 543.14-22.6 545.64-19.7 545.64-14.75L545.64-14.75Q545.64-13.4 545.54-11.7ZM529.84-14.55L529.84-14.55 542.04-14.55Q542.04-18.25 540.74-20.25 539.44-22.25 536.22-22.25 532.99-22.25 531.49-20.1 529.99-17.95 529.84-14.55ZM567.34-3.9L567.34-3.9 568.09-0.95Q564.09 0.25 561.04 0.25L561.04 0.25Q555.69 0.25 552.99-3.25 550.29-6.75 550.29-12.9 550.29-19.05 553.09-22.28 555.89-25.5 561.34-25.5L561.34-25.5Q563.69-25.5 567.94-24.3L567.94-24.3 566.44-21.4Q563.69-22.2 561.49-22.2L561.49-22.2Q557.69-22.2 556.01-19.95 554.34-17.7 554.34-12.85L554.34-12.85Q554.34-3 561.39-3L561.39-3Q564.19-3 567.34-3.9ZM574.88-5.4L574.88-5.4 574.88-22 571.49-22 571.49-25 574.94-25 574.94-32.15 578.69-32.15 578.69-25 584.78-25 584.78-22 578.63-22 578.63-6.1Q578.63-2.75 582.03-2.75L582.03-2.75Q582.84-2.75 584.49-3.05L584.49-3.05 585.03-0.35Q582.99 0.3 580.81 0.3 578.63 0.3 576.76-1.03 574.88-2.35 574.88-5.4ZM594.63 0L590.88 0 590.88-25 594.63-25 594.63 0ZM590.88-35L594.63-35 594.63-30.55 590.88-30.55 590.88-35ZM618.43-12.33Q618.43-17.15 616.53-19.7 614.63-22.25 610.98-22.25 607.33-22.25 605.8-19.83 604.28-17.4 604.28-12.4L604.28-12.4Q604.28-2.95 611.23-2.95L611.23-2.95Q614.88-2.95 616.65-5.23 618.43-7.5 618.43-12.33ZM619.33-3.1Q616.48 0.3 611.28 0.3 606.08 0.3 603.3-3.08 600.53-6.45 600.53-12.53 600.53-18.6 603.2-22.05 605.88-25.5 611.05-25.5 616.23-25.5 619.2-22 622.18-18.5 622.18-12.5 622.18-6.5 619.33-3.1ZM632.63-19.85L632.63-19.85 632.63 0 628.88 0 628.88-25 631.28-25 631.88-22.55Q633.03-23.45 633.75-23.95 634.48-24.45 636.08-24.98 637.68-25.5 639.48-25.5L639.48-25.5Q642.93-25.5 645.2-23.38 647.48-21.25 647.48-17.35L647.48-17.35 647.48 0 643.73 0 643.73-16.25Q643.73-22.3 638.68-22.3L638.68-22.3Q635.08-22.3 632.63-19.85Z" opacity="1" transform="matrix(1,0,0,1,0,0)" fill="#ffffff" class="undefined-text-1" data-fill-palette-color="secondary" id="text-1"></path></svg></g></svg></g></svg></g></svg></g><g transform="matrix(1,0,0,1,129.04079025509225,0)"><svg viewBox="0 0 137.43841948981546 114.56713109155473" height="114.56713109155473" width="137.43841948981546"><g><svg xmlns="http://www.w3.org/2000/svg" data-name="Layer 1" viewBox="0.84 8.999849217120358 98.37002446672454 82.00015345340762" x="0" y="0" height="114.56713109155473" width="137.43841948981546" class="icon-icon-0" data-fill-palette-color="accent" id="icon-0"><path d="M78.69 43.42H0.84V37a6.94 6.94 0 0 1 6.94-6.94h64A6.94 6.94 0 0 1 78.69 37ZM7.78 84h45a0.91 0.91 0 0 0 0.84-1.28 25.74 25.74 0 0 1 5.5-29 0.83 0.83 0 0 0-0.57-1.43H0.84V77.09A6.94 6.94 0 0 0 7.78 84Zm69.34 7A18.79 18.79 0 1 1 95.92 72.19 18.79 18.79 0 0 1 77.12 91ZM74.84 73.14L83 81.27 86.2 78l-6.79-6.79V60.95H74.84ZM27.51 18H90.23V49A1.53 1.53 0 0 0 91 50.31a26 26 0 0 1 6.73 6.15 0.83 0.83 0 0 0 1.48-0.52V17.33A8.31 8.31 0 0 0 90.85 9h-64a8.31 8.31 0 0 0-8.31 8.31V24h8.93Z" fill="#ffffff" data-fill-palette-color="accent"></path></svg></g></svg></g><g></g></svg></g><defs></defs></svg><rect width="395.52" height="209.85811435193745" fill="none" stroke="none" visibility="hidden"></rect></g></svg></g></svg>